<?xml version="1.0" standalone="no"?>
<!DOCTYPE svg PUBLIC "-//W3C//DTD SVG 20010904//EN"
 "http://www.w3.org/TR/2001/REC-SVG-20010904/DTD/svg10.dtd">
<svg version="1.0" xmlns="http://www.w3.org/2000/svg"
 width="300.000000pt" height="198.000000pt" viewBox="0 0 300.000000 198.000000"
 preserveAspectRatio="xMidYMid meet">
<metadata>
Created by potrace 1.10, written by Peter Selinger 2001-2011
</metadata>
<g transform="translate(0.000000,198.000000) scale(0.100000,-0.100000)"
fill="#000000" stroke="none">
<path d="M2678 1792 c-167 -50 -180 -59 -138 -97 11 -10 19 -22 18 -25 -4 -9
-956 -750 -964 -750 -3 0 -122 49 -264 110 -143 61 -264 110 -269 110 -5 0
-11 -3 -13 -8 -1 -4 -176 -171 -388 -371 -212 -200 -411 -390 -444 -421 l-59
-58 29 -36 c16 -20 37 -36 46 -36 9 0 203 176 430 391 227 215 418 393 424
396 6 2 127 -45 270 -106 l258 -109 76 58 c41 33 271 211 510 398 l435 340 18
-29 c11 -16 25 -29 32 -29 16 0 197 299 189 312 -9 13 -31 9 -196 -40z m122
-18 c0 -12 -101 -183 -112 -190 -5 -3 -15 -1 -21 5 -23 23 -61 10 -136 -46
-42 -32 -81 -62 -87 -68 -7 -5 -35 -28 -64 -50 -51 -40 -161 -125 -190 -148
-14 -12 -126 -98 -234 -181 -28 -21 -53 -42 -56 -45 -3 -4 -43 -36 -90 -71
-47 -35 -96 -75 -110 -87 -14 -13 -40 -33 -58 -44 -31 -20 -34 -20 -75 -4 -56
22 -277 114 -302 125 -33 15 -128 52 -156 60 -35 10 -54 -3 -176 -120 -164
-158 -305 -291 -389 -369 -43 -41 -127 -121 -186 -177 -104 -100 -138 -122
-138 -88 0 16 10 26 171 178 51 50 142 135 200 190 58 56 141 134 185 175 43
41 126 119 183 174 115 111 110 109 212 64 85 -38 215 -92 324 -136 119 -47
98 -53 280 89 72 56 182 141 245 190 63 48 126 97 140 108 35 29 132 105 246
192 161 124 178 142 179 187 0 37 2 38 45 50 25 6 45 12 45 13 0 3 91 27 108
29 9 0 17 -2 17 -5z"/>
<path d="M2337 1243 c-4 -3 -7 -240 -7 -525 l0 -518 158 0 157 0 -3 512 c-1
282 -2 519 -2 526 0 9 -36 12 -148 12 -82 0 -152 -3 -155 -7z m278 -22 c11
-18 7 -973 -4 -984 -10 -10 -223 -18 -248 -9 -10 3 -13 112 -13 497 0 385 3
494 13 498 22 10 246 7 252 -2z"/>
<path d="M1947 943 c-4 -3 -7 -172 -7 -375 l0 -368 158 0 157 0 -1 367 c-1
203 -2 371 -3 376 -1 9 -295 10 -304 0z m271 -21 c16 -11 20 -681 3 -691 -6
-4 -63 -6 -127 -5 -86 1 -119 5 -125 15 -13 21 -10 660 3 676 12 15 224 19
246 5z"/>
<path d="M1166 754 c-3 -8 -6 -137 -6 -285 l0 -269 160 0 160 0 -2 283 -3 282
-151 3 c-132 2 -152 0 -158 -14z m287 -49 c10 -48 5 -460 -6 -471 -11 -11
-229 -13 -249 -2 -16 8 -18 30 -18 251 0 179 3 246 12 255 9 9 48 12 132 10
l120 -3 9 -40z"/>
<path d="M1557 703 c-4 -3 -7 -118 -7 -255 l0 -248 160 0 160 0 0 243 c0 176
-3 246 -12 255 -13 13 -289 18 -301 5z m276 -28 c21 -20 25 -419 5 -439 -15
-15 -233 -17 -255 -3 -18 11 -18 428 -1 445 19 19 232 16 251 -3z"/>
<path d="M782 608 c-9 -9 -12 -67 -12 -210 l0 -198 160 0 160 0 -2 208 -3 207
-145 3 c-105 2 -149 -1 -158 -10z m279 -20 c7 -68 6 -337 -1 -348 -7 -12 -34
-15 -129 -14 -66 0 -123 3 -127 6 -8 9 -8 344 1 357 10 16 255 15 256 -1z"/>
<path d="M387 244 c-4 -4 -7 -16 -7 -26 0 -17 12 -18 161 -18 l160 0 -3 23
c-3 22 -6 22 -154 25 -82 1 -153 -1 -157 -4z"/>
</g>
</svg>
