<?xml version="1.0" standalone="no"?>
<!DOCTYPE svg PUBLIC "-//W3C//DTD SVG 20010904//EN"
 "http://www.w3.org/TR/2001/REC-SVG-20010904/DTD/svg10.dtd">
<svg version="1.0" xmlns="http://www.w3.org/2000/svg"
 width="275.000000pt" height="183.000000pt" viewBox="0 0 275.000000 183.000000"
 preserveAspectRatio="xMidYMid meet">
<metadata>
Created by potrace 1.10, written by Peter Selinger 2001-2011
</metadata>
<g transform="translate(0.000000,183.000000) scale(0.100000,-0.100000)"
fill="#000000" stroke="none">
<path d="M1286 1809 c-15 -15 -22 -16 -28 -7 -6 10 -8 10 -8 1 0 -7 6 -16 13
-20 8 -4 22 -22 32 -40 18 -30 42 -36 31 -7 -3 7 0 16 6 20 7 4 8 3 4 -4 -13
-22 13 -12 29 11 13 19 17 20 25 7 9 -13 10 -13 10 1 0 25 -11 29 -39 15 -14
-7 -32 -11 -38 -9 -7 3 -13 -3 -13 -12 0 -9 -4 -13 -10 -10 -17 10 -11 36 13
56 15 13 18 18 7 18 -8 0 -24 -9 -34 -20z"/>
<path d="M1520 1813 c0 -7 5 -13 10 -13 6 0 10 -4 10 -10 0 -5 -13 -7 -29 -4
-17 4 -32 1 -36 -5 -4 -8 -11 -9 -19 -2 -8 7 -17 6 -26 -1 -12 -8 -11 -9 4 -4
15 5 17 4 7 -8 -21 -25 6 -29 38 -5 31 23 51 19 51 -11 0 -35 -11 -52 -26 -39
-19 15 -18 33 1 25 8 -3 15 -1 15 4 0 16 -17 20 -35 6 -16 -12 -16 -14 9 -39
28 -28 42 -35 30 -15 -5 8 -2 9 10 5 14 -6 16 -3 11 13 -3 10 -1 28 5 40 8 15
8 20 -1 20 -8 0 -8 4 1 15 7 8 9 15 4 15 -10 0 17 20 27 20 4 0 10 -12 13 -26
13 -52 66 -80 93 -49 5 4 2 5 -4 1 -8 -4 -13 -2 -13 6 0 10 -3 9 -10 -2 -5 -8
-10 -12 -12 -10 -2 3 -17 24 -32 48 -25 37 -33 42 -63 40 -19 -1 -33 -7 -33
-15z"/>
<path d="M1230 1793 c0 -7 -14 -11 -38 -10 -29 2 -38 -1 -38 -14 0 -18 46 -22
46 -4 1 6 8 -1 16 -15 13 -21 15 -22 11 -4 -3 12 1 21 8 21 7 0 11 -6 9 -12
-3 -6 2 -12 10 -12 11 0 12 5 6 16 -20 35 -30 46 -30 34z"/>
<path d="M1570 1751 c0 -5 -3 -18 -6 -28 -5 -15 -4 -15 5 -3 9 13 11 12 12 -5
0 -11 3 -14 6 -7 4 9 8 10 18 2 9 -8 15 -8 20 0 3 5 2 10 -3 10 -4 0 -18 9
-30 20 -12 12 -22 16 -22 11z"/>
<path d="M1175 1730 c-19 -7 -18 -8 5 -13 14 -3 4 -5 -22 -4 -27 1 -48 -1 -48
-5 0 -5 25 -8 56 -8 52 0 55 1 43 18 -7 9 -13 18 -14 18 0 1 -9 -2 -20 -6z"/>
<path d="M1661 1707 c-6 -8 -8 -17 -4 -20 3 -4 2 -7 -4 -7 -5 0 -13 3 -17 7
-13 13 -35 11 -41 -4 -7 -21 4 -31 14 -14 6 9 11 10 15 2 4 -6 12 -9 17 -5 6
3 28 -12 49 -35 38 -40 69 -59 38 -23 -23 26 -58 99 -51 106 4 3 4 6 1 6 -3 0
-11 -6 -17 -13z"/>
<path d="M1700 1711 c0 -29 33 -72 67 -89 41 -19 82 -73 112 -148 15 -39 21
-45 27 -30 4 11 2 21 -5 26 -7 4 -11 13 -10 21 5 34 -71 149 -98 149 -6 0 -29
19 -51 42 -23 23 -42 36 -42 29z"/>
<path d="M1103 1664 c4 -4 -10 -22 -31 -42 -20 -19 -28 -29 -17 -23 51 28 83
71 53 71 -6 0 -8 -3 -5 -6z"/>
<path d="M1191 1656 c-8 -10 -9 -16 -1 -21 10 -6 14 1 11 18 -1 4 7 3 18 -3
28 -14 35 -12 17 5 -18 19 -30 19 -45 1z"/>
<path d="M1448 1663 c6 -2 12 -11 12 -18 0 -17 55 -36 68 -23 6 6 12 4 16 -7
3 -9 2 -13 -3 -10 -5 3 -12 1 -16 -4 -3 -6 5 -8 20 -5 14 2 35 -1 48 -7 12 -6
4 5 -18 24 -39 35 -56 45 -54 30 4 -23 -4 -23 -35 1 -19 14 -38 26 -43 25 -4
0 -2 -3 5 -6z"/>
<path d="M1573 1646 c15 -14 25 -26 21 -26 -3 0 4 -8 16 -18 20 -16 21 -20 8
-33 -18 -18 -19 -49 -1 -42 7 3 13 -2 13 -11 0 -9 5 -16 10 -16 6 0 10 7 10
15 0 8 -4 15 -10 15 -5 0 -10 4 -10 9 0 5 9 7 20 4 11 -3 20 -9 20 -14 0 -5 5
-9 12 -9 6 0 1 11 -11 24 -12 13 -23 30 -24 37 -2 8 -6 15 -11 16 -5 0 -13 8
-18 17 -5 8 -23 25 -41 36 l-32 22 28 -26z"/>
<path d="M1310 1651 c0 -5 6 -12 13 -14 9 -4 8 -8 -3 -16 -13 -9 -12 -11 3
-11 22 0 47 -23 47 -44 0 -8 5 -18 10 -21 6 -3 10 5 10 18 0 14 -7 28 -16 31
-13 5 -14 9 -5 20 8 10 9 16 1 21 -5 3 -10 3 -10 -2 0 -4 -5 0 -11 10 -10 18
-39 24 -39 8z"/>
<path d="M1760 1593 c0 -6 8 -21 18 -34 10 -13 29 -45 42 -71 13 -27 28 -48
32 -48 5 0 6 -6 2 -12 -5 -10 -4 -10 5 -2 10 9 6 24 -17 70 -28 56 -82 119
-82 97z"/>
<path d="M790 1539 c0 -4 21 -12 46 -19 39 -11 47 -11 55 1 15 24 11 26 -46
25 -30 -1 -55 -4 -55 -7z"/>
<path d="M1760 1480 c28 -57 35 -63 26 -25 -4 17 -16 39 -28 50 -19 19 -19 18
2 -25z"/>
<path d="M917 1469 c-4 -15 -11 -20 -21 -16 -13 5 -16 -1 -16 -32 0 -60 -25
-111 -55 -111 -36 0 -32 26 10 67 19 19 35 36 35 39 0 13 -61 -29 -79 -54 -19
-27 -19 -30 -4 -52 13 -18 22 -21 49 -17 31 5 34 3 34 -18 0 -26 -9 -30 -85
-40 -77 -10 -84 -13 -96 -55 -15 -48 -6 -74 22 -67 12 3 18 3 15 0 -3 -3 3
-18 14 -33 11 -16 20 -36 20 -47 0 -45 25 -100 62 -137 38 -39 40 -42 42 -115
3 -93 17 -123 54 -119 22 2 28 -2 30 -21 7 -47 50 -100 105 -127 63 -32 126
-74 188 -126 76 -64 185 -80 204 -30 5 13 2 12 -14 -2 -18 -16 -26 -17 -69 -7
-48 12 -102 48 -102 69 0 6 -4 14 -10 17 -6 4 -7 -1 -3 -11 6 -16 4 -16 -20 2
-14 10 -25 26 -24 34 1 8 -2 15 -8 16 -5 0 -43 16 -82 35 -62 29 -75 39 -88
72 -8 21 -21 40 -29 43 -8 3 -17 17 -20 30 -4 15 -11 22 -18 18 -8 -5 -9 -2
-5 9 3 10 2 17 -3 17 -6 0 -10 -4 -10 -10 0 -5 -9 -10 -20 -10 -11 0 -20 7
-20 16 0 8 -4 13 -8 10 -5 -3 -7 7 -4 22 2 15 -1 47 -7 72 -5 25 -7 48 -3 52
4 4 43 2 86 -4 155 -20 256 15 323 115 19 28 34 42 37 34 3 -6 3 0 0 15 -5 23
-1 30 19 39 39 17 52 7 88 -68 34 -72 69 -124 69 -103 0 10 5 9 18 -3 40 -36
95 -50 202 -50 60 -1 121 5 143 12 43 14 79 58 97 116 7 22 16 47 21 55 28 47
45 66 55 63 19 -6 22 73 4 96 -24 32 -208 65 -360 66 -112 0 -134 -3 -209 -28
-94 -32 -117 -32 -207 7 -80 34 -197 50 -301 42 -82 -7 -83 -7 -83 16 0 13 -3
34 -7 47 -5 18 -3 22 7 16 10 -6 12 -4 7 10 -4 9 -2 24 4 31 6 7 8 17 5 22 -3
5 3 20 14 32 11 13 20 31 20 42 0 24 -6 23 -13 -3z m-70 -260 c-5 -19 -4 -19
11 -6 14 13 41 15 142 12 69 -2 148 -9 175 -15 28 -6 64 -12 80 -13 17 -2 40
-8 52 -15 12 -7 29 -12 37 -12 9 0 16 -4 16 -10 0 -6 9 -6 26 1 27 10 74 2 58
-10 -16 -11 -40 -45 -26 -37 6 4 12 2 12 -3 0 -14 -31 -14 -63 -2 -14 6 -28 7
-32 3 -4 -4 -10 -7 -13 -8 -20 -2 -41 -17 -36 -25 3 -5 0 -9 -5 -9 -6 0 -11
-6 -11 -13 0 -8 -14 -34 -31 -60 -22 -33 -46 -54 -85 -73 -51 -25 -61 -26
-159 -22 -66 3 -110 10 -120 18 -14 12 -18 11 -27 -1 -8 -11 -9 -11 -4 3 3 11
-2 22 -15 28 -11 6 -17 15 -14 20 3 4 1 10 -3 12 -5 1 -15 23 -23 48 -18 58
-10 122 21 155 l23 25 -21 0 c-16 0 -22 -6 -23 -22 0 -13 -3 -17 -6 -10 -2 6
-9 12 -15 12 -7 0 -7 -4 0 -13 7 -9 8 -23 3 -43 -5 -16 -10 -22 -10 -13 -1 9
-15 22 -33 30 -17 7 -26 15 -20 17 6 2 8 10 5 19 -4 11 -2 14 5 9 7 -4 12 -3
12 2 0 6 22 13 50 17 27 4 52 11 56 16 10 16 16 9 11 -12z m1006 -24 c13 -6
15 -10 6 -21 -8 -9 -1 -8 22 3 45 23 59 24 91 10 28 -12 46 -37 28 -37 -6 0
-10 -7 -10 -15 0 -8 4 -15 9 -15 11 0 23 29 16 40 -3 5 -1 11 5 15 6 4 10 -8
10 -30 0 -20 -4 -34 -8 -31 -15 9 -52 -33 -52 -58 0 -46 -33 -125 -64 -154
-50 -45 -65 -48 -19 -4 36 36 44 52 59 119 9 43 21 84 27 91 9 11 5 15 -9 10
-4 -2 -10 7 -15 19 -4 12 -17 27 -29 33 l-20 11 20 -33 c27 -44 25 -53 -11
-78 l-30 -22 4 38 c2 22 5 44 7 49 6 24 0 39 -11 28 -6 -6 -11 -33 -12 -62 -1
-28 -5 -51 -8 -51 -3 0 -6 -24 -7 -52 -1 -40 2 -49 9 -35 11 18 44 23 54 7 3
-5 -10 -26 -28 -47 -34 -37 -35 -37 -128 -41 -159 -7 -224 23 -276 128 -31 62
-45 139 -23 125 6 -3 10 -3 10 2 1 23 35 47 82 59 54 14 265 13 301 -1z m-483
-101 c0 -3 -13 -10 -29 -15 -21 -7 -34 -22 -45 -51 -23 -57 -65 -106 -109
-129 -22 -11 -41 -18 -43 -16 -3 2 9 10 26 17 32 13 79 74 118 150 18 37 27
45 52 47 17 1 30 0 30 -3z"/>
<path d="M970 1188 c0 -3 -7 -22 -15 -42 -9 -21 -11 -36 -5 -36 5 0 10 5 10
12 0 6 8 20 17 30 13 14 14 21 5 30 -7 7 -12 9 -12 6z"/>
<path d="M835 1137 c-6 -22 -11 -26 -27 -21 -19 6 -20 3 -14 -42 8 -49 36 -98
36 -61 0 9 -4 17 -10 17 -5 0 -10 10 -10 22 0 21 0 21 16 2 15 -18 15 -17 10
15 -4 23 -1 40 8 50 10 11 12 22 6 31 -7 11 -10 8 -15 -13z"/>
<path d="M1085 1146 c-50 -18 -75 -41 -79 -72 -3 -16 -7 -37 -11 -46 -5 -12
-1 -20 10 -24 25 -10 37 8 26 37 -6 16 -5 31 1 42 11 20 70 47 102 47 52 0
103 -71 85 -119 -8 -20 -7 -22 5 -12 9 8 14 29 13 63 -2 42 -6 54 -27 69 -33
23 -75 36 -65 19 5 -9 3 -9 -11 -2 -13 6 -29 6 -49 -2z"/>
<path d="M1102 1094 c-13 -9 -22 -26 -22 -40 0 -14 -4 -22 -10 -19 -5 3 -10 1
-10 -4 0 -12 71 -15 108 -5 28 8 29 37 2 64 -24 24 -38 25 -68 4z m66 -30 c2
-12 -3 -24 -11 -27 -10 -4 -13 2 -11 19 3 26 2 27 -20 18 -12 -5 -13 -10 -5
-25 7 -15 6 -19 -5 -19 -20 0 -29 16 -21 39 8 27 69 23 73 -5z"/>
<path d="M1730 1169 c0 -6 11 -24 25 -40 13 -16 27 -45 31 -64 3 -19 10 -35
15 -35 11 0 1 49 -13 67 -6 7 -3 13 9 16 16 4 16 5 1 6 -9 0 -20 10 -23 21 -7
23 -45 48 -45 29z"/>
<path d="M1544 1148 c-18 -8 -44 -46 -44 -62 0 -2 14 9 32 26 28 26 36 28 72
22 43 -7 86 -30 86 -46 0 -6 7 -7 16 -4 8 3 13 2 10 -2 -2 -4 7 -12 20 -19 27
-13 26 -8 -13 45 -14 18 -27 31 -30 28 -3 -3 -12 1 -20 9 -17 17 -97 19 -129
3z"/>
<path d="M1546 1097 c-21 -16 -18 -62 4 -62 8 -1 24 -6 36 -12 27 -15 50 -1
39 23 -8 18 -8 18 -12 2 -3 -10 -12 -18 -21 -18 -14 0 -14 2 -3 9 15 10 8 41
-10 41 -6 0 -13 -9 -16 -20 -3 -11 -9 -17 -14 -14 -16 9 -10 33 12 44 16 9 24
8 38 -4 25 -23 37 -20 16 4 -21 23 -44 25 -69 7z"/>
<path d="M1668 1037 c-24 -9 -39 -27 -23 -27 10 0 65 30 65 35 0 7 -10 5 -42
-8z"/>
<path d="M1804 1424 c5 -10 14 -41 21 -69 7 -27 13 -42 14 -32 2 28 -20 107
-32 114 -7 4 -8 0 -3 -13z"/>
<path d="M1850 1371 c0 -11 5 -23 11 -26 6 -4 8 -12 6 -19 -3 -6 3 -12 13 -12
17 0 17 2 -1 38 -22 43 -29 47 -29 19z"/>
<path d="M1910 1368 c0 -13 4 -29 9 -36 6 -10 10 -7 15 13 4 14 4 30 1 35 -11
18 -25 10 -25 -12z"/>
<path d="M1268 915 c-21 -24 -38 -52 -38 -62 0 -23 18 -43 39 -43 11 0 11 4
-4 20 -25 27 -13 70 19 70 17 0 25 7 28 25 8 39 -4 37 -44 -10z"/>
<path d="M777 883 c-15 -51 -17 -82 -7 -104 10 -24 10 -24 5 3 -3 15 -1 47 4
70 10 42 8 67 -2 31z"/>
<path d="M1280 861 c0 -21 63 -67 79 -57 4 3 9 -20 10 -52 3 -71 11 -83 11
-16 0 28 5 55 12 62 9 9 9 12 -3 12 -9 0 -33 13 -55 30 -41 31 -54 36 -54 21z"/>
<path d="M1428 853 c-18 -5 -26 -33 -9 -33 5 0 19 9 32 20 24 19 16 24 -23 13z"/>
<path d="M895 820 c-8 -13 4 -50 16 -50 5 0 9 14 9 30 0 30 -13 40 -25 20z"/>
<path d="M1866 798 c-9 -35 -7 -98 3 -98 11 0 26 78 17 87 -3 4 -1 12 5 20 9
10 8 13 -4 13 -8 0 -17 -10 -21 -22z"/>
<path d="M1827 679 c-9 -6 -21 -8 -26 -5 -11 7 -24 -56 -15 -77 8 -21 -11
-106 -35 -159 -47 -101 -80 -199 -85 -249 -3 -30 -12 -79 -21 -109 -19 -69
-19 -80 1 -80 8 0 13 4 10 9 -7 11 22 131 36 148 5 6 8 17 7 25 -1 7 -1 23 0
36 1 20 4 21 21 12 11 -6 20 -7 20 -3 0 5 -9 15 -20 23 -23 17 -27 32 -5 24 9
-4 15 0 15 10 0 9 5 16 11 16 5 0 7 5 4 10 -4 6 -1 17 5 25 10 12 9 15 -6 15
-15 0 -13 5 11 21 17 12 23 19 14 16 -9 -3 -16 1 -16 9 0 8 2 12 5 10 8 -9 30
19 25 31 -3 7 -1 13 5 13 11 0 11 4 14 122 1 42 5 75 9 73 10 -7 42 21 38 33
-3 7 -10 8 -22 1z"/>
<path d="M1351 663 c0 -6 -10 -15 -21 -18 -11 -3 -20 -11 -20 -17 0 -6 27 -9
74 -6 l74 4 -11 -23 c-5 -13 -12 -21 -15 -18 -3 2 -12 -3 -21 -13 -22 -24 -61
-27 -62 -4 0 10 -3 12 -6 5 -13 -32 -68 1 -68 41 0 21 -30 44 -42 33 -4 -5 -1
-12 6 -16 8 -6 11 -18 8 -32 -7 -29 11 -55 38 -55 11 -1 40 -2 65 -3 64 -4 70
-3 70 13 0 8 8 17 18 21 11 3 24 17 31 31 8 19 16 24 29 19 14 -5 15 -4 4 7
-7 7 -38 12 -77 12 -49 1 -65 4 -69 16 -2 8 -4 10 -5 3z"/>
<path d="M1700 556 c-25 -18 -51 -40 -59 -49 -7 -10 -18 -17 -23 -17 -5 0 -15
-6 -22 -12 -14 -15 -56 -48 -104 -82 -28 -20 -30 -25 -17 -36 12 -10 15 -10
15 1 0 8 21 27 46 43 25 16 50 34 57 40 7 6 39 31 72 56 62 46 95 75 95 85 0
11 -17 3 -60 -29z"/>
<path d="M935 540 c-9 -41 -88 -81 -215 -109 -52 -11 -131 -32 -174 -46 -43
-14 -84 -25 -90 -26 -16 0 -113 -48 -100 -49 6 0 31 7 55 15 24 9 55 14 69 12
14 -2 18 -2 11 1 -9 2 2 10 24 18 31 10 41 10 47 1 6 -9 8 -9 8 1 0 16 44 33
90 37 19 1 37 3 40 5 5 3 24 6 55 9 17 1 18 3 5 12 -12 9 -10 10 9 5 14 -3 40
3 62 15 44 22 53 24 43 7 -4 -7 -3 -8 4 -4 7 4 12 14 12 22 0 30 40 14 58 -23
9 -21 20 -40 24 -43 7 -6 23 -81 20 -93 -1 -5 2 -6 8 -2 5 3 10 2 10 -3 0 -18
31 -84 37 -78 9 8 -45 175 -74 228 -20 36 -24 55 -19 82 8 44 -10 49 -19 6z"/>
<path d="M616 338 c-8 -17 8 -59 22 -57 36 6 52 -28 19 -41 -20 -8 -20 -9 -2
-8 30 0 123 25 100 27 -37 2 -124 53 -128 75 -3 18 -5 19 -11 4z"/>
<path d="M1185 321 c-27 -12 -54 -38 -83 -80 -38 -54 -43 -67 -37 -97 6 -34
19 -44 28 -21 3 6 6 3 6 -8 1 -11 5 -26 9 -33 13 -19 12 48 0 81 -8 20 -7 31
3 44 12 15 12 16 -1 8 -12 -6 -13 -5 -3 5 13 14 75 22 67 8 -3 -4 2 -8 11 -8
10 0 13 5 9 12 -4 7 -3 8 5 4 6 -4 9 -11 6 -16 -3 -5 5 -10 17 -12 29 -4 40
-55 27 -122 -13 -68 -10 -101 5 -56 6 19 14 40 18 46 4 6 5 39 2 74 -4 54 -9
68 -34 92 -27 25 -42 32 -62 29 -4 0 -5 5 -2 12 7 20 80 21 88 1 4 -11 14 -15
31 -12 13 3 22 1 19 -4 -3 -4 23 -6 58 -4 36 3 62 9 61 15 -2 7 6 6 22 -1 14
-6 25 -15 25 -20 0 -11 -13 -10 -28 2 -9 7 -9 7 -2 -2 6 -7 10 -16 10 -21 0
-4 -4 -5 -10 -2 -5 3 -10 -1 -10 -9 0 -9 -4 -16 -9 -16 -8 0 -34 -52 -32 -64
0 -3 -6 -26 -13 -51 -12 -38 -12 -46 0 -56 12 -10 12 -14 -3 -25 -17 -12 -16
-13 5 -14 15 0 22 6 22 19 0 11 -4 22 -9 25 -15 9 16 96 54 154 27 39 41 52
60 52 25 0 33 -14 15 -25 -5 -3 -10 -11 -10 -16 0 -6 3 -8 8 -5 11 7 40 -18
57 -50 11 -21 15 -24 15 -10 0 11 5 16 13 13 8 -3 20 -1 28 4 19 13 -66 90
-138 125 -45 23 -57 25 -84 15 -55 -19 -103 -14 -129 14 -28 30 -51 31 -105 6z"/>
<path d="M2060 236 c-69 -27 -90 -41 -90 -61 1 -18 2 -18 13 -4 10 13 81 53
97 54 3 0 14 6 25 12 28 17 0 16 -45 -1z"/>
<path d="M1002 190 c12 -22 23 -38 24 -37 8 8 -21 77 -32 77 -9 0 -7 -12 8
-40z"/>
<path d="M1161 193 c28 -38 58 -62 64 -53 3 6 1 10 -6 10 -7 0 -10 3 -6 6 6 6
-45 54 -58 54 -4 0 -2 -8 6 -17z"/>
<path d="M12 178 c-13 -13 -15 -121 -3 -152 12 -32 22 -2 10 31 -11 32 -8 90
5 112 11 17 2 23 -12 9z"/>
<path d="M564 178 c-4 -6 -3 -13 3 -15 6 -2 23 -29 38 -59 15 -30 30 -52 35
-49 9 5 -45 120 -60 130 -5 3 -12 0 -16 -7z"/>
<path d="M81 174 c-1 -6 10 -31 23 -55 13 -24 29 -61 36 -82 7 -21 14 -36 17
-33 3 3 -2 26 -11 51 -10 24 -15 49 -11 55 4 6 1 9 -7 8 -7 -2 -12 5 -12 14 1
10 -2 15 -7 12 -5 -3 -13 5 -18 18 -6 13 -10 18 -10 12z"/>
<path d="M980 161 c0 -5 7 -17 17 -26 14 -14 14 -18 2 -25 -11 -8 -11 -12 -1
-22 10 -10 15 -10 22 2 8 12 10 13 10 1 0 -8 2 -12 5 -9 7 7 -36 88 -47 88 -4
0 -8 -4 -8 -9z"/>
<path d="M2568 143 c17 -9 32 -20 32 -24 0 -5 9 -13 20 -19 15 -8 18 -8 14 3
-5 14 -75 58 -90 56 -5 0 6 -8 24 -16z"/>
<path d="M2137 133 c3 -10 2 -15 -2 -11 -8 8 -75 -82 -75 -101 0 -5 -5 -12
-10 -14 -6 -3 -5 -4 2 -3 7 1 22 19 33 39 11 20 25 37 31 37 6 0 16 11 22 25
15 32 15 45 2 45 -5 0 -7 -8 -3 -17z"/>
<path d="M1488 130 c-16 -34 -35 -130 -27 -130 18 0 40 62 37 103 -2 25 -6 36
-10 27z"/>
<path d="M1270 46 c0 -12 4 -27 9 -35 6 -9 10 -3 13 21 2 24 -1 35 -9 35 -7 0
-13 -10 -13 -21z"/>
<path d="M1570 57 c0 -7 -10 -21 -22 -32 -23 -19 -12 -33 16 -22 15 6 28 67
14 67 -4 0 -8 -6 -8 -13z"/>
<path d="M2670 59 c0 -5 4 -8 10 -4 5 3 16 -8 25 -26 9 -17 19 -29 22 -26 8 9
-30 67 -44 67 -7 0 -13 -5 -13 -11z"/>
<path d="M1090 42 c0 -6 -3 -17 -6 -26 -4 -12 0 -16 16 -16 16 0 21 5 18 22
-3 21 -28 39 -28 20z"/>
</g>
</svg>
